<svg width="213" height="377" viewBox="0 0 213 377" fill="none" xmlns="http://www.w3.org/2000/svg">
<path d="M42.372 70.0165C47.5296 53.0997 65.3232 45.604 73.5753 43.9708C148.36 31.3348 142.429 100.962 140.366 121.334C138.715 137.632 143.976 162.337 147.586 173.168L104.005 178.583C103.747 176.95 103.695 181.678 102.458 173.426C97.3001 148.669 88.7901 153.053 69.1913 159.758C55.5238 164.434 51.1399 150.732 51.1399 132.257C42.372 137.957 46.4981 128.555 46.4981 121.85C37.2144 121.592 21.226 111.019 35.925 108.182C50.6241 105.346 35.925 91.1625 42.372 70.0165Z" fill="#FFC7C3"/>
<path d="M56.0259 132.68C52.6734 135.259 52.5015 139.213 51.8998 141.448L50.3525 132.68C52.5015 130.703 57.9342 125.769 62.4728 121.85C62.2149 125.976 59.3783 130.102 56.0259 132.68Z" fill="#FFA9A3"/>
<path fill-rule="evenodd" clip-rule="evenodd" d="M73.2086 44.0467C140.769 36.7196 135.144 102.638 133.146 122.366C131.502 138.6 136.715 163.174 140.324 174.071L147.588 173.168C143.977 162.337 138.717 137.633 140.367 121.335C142.43 100.962 148.361 31.3352 73.5767 43.9713C73.456 43.9952 73.3333 44.0203 73.2086 44.0467ZM81.9907 155.569C77.5959 155.387 72.0506 157.306 64.908 159.778C64.1633 160.035 63.4013 160.299 62.6214 160.567C64.5238 160.852 66.7044 160.61 69.1927 159.759C70.2005 159.414 71.179 159.075 72.1292 158.746C75.8229 157.468 79.0895 156.337 81.9907 155.569Z" fill="#FFA9A3"/>
<path d="M62.2286 121.334C57.4926 127.054 53.8861 130.471 51.1399 132.257M51.1399 132.257C42.372 137.957 46.4981 128.555 46.4981 121.85C37.2144 121.592 21.226 111.019 35.925 108.182C50.6241 105.346 35.925 91.1625 42.372 70.0165C47.5296 53.0997 65.3232 45.604 73.5753 43.9708C148.36 31.3348 142.429 100.962 140.366 121.334C138.715 137.632 143.976 162.337 147.586 173.168L104.005 178.583C103.747 176.95 103.695 181.678 102.458 173.426C97.3001 148.669 88.7901 153.053 69.1913 159.758C55.5238 164.434 51.1399 150.732 51.1399 132.257Z" stroke="#002755" stroke-width="2.06303" stroke-linecap="round" stroke-linejoin="round"/>
<path d="M62.2279 121.334C57.4919 127.054 53.8854 130.471 51.1392 132.257" stroke="#002755" stroke-width="2.06303" stroke-linecap="round" stroke-linejoin="round"/>
<path d="M44.9517 81.841C47.0147 79.4341 53.049 75.3425 60.6822 78.2307" stroke="#002755" stroke-width="4.12605" stroke-linecap="round" stroke-linejoin="round"/>
<path d="M48.2908 91.8601C50.2679 90.3618 54.9999 88.4081 58.1105 92.5793" stroke="#002755" stroke-width="2.06303" stroke-linecap="round" stroke-linejoin="round"/>
<path d="M50.7511 56.3364C33.4733 55.3169 19.836 42.9387 16.3116 30.3027C12.7013 13.5406 28.1739 25.6608 37.1997 26.6924C22.7585 10.446 26.001 1.46854 35.9103 7.3515C44.582 12.4997 48.7636 14.8313 55.3335 18.7992C52.1394 16.6076 47.2569 11.1986 47.2569 3.99909C47.2569 -9.15269 56.4244 14.3023 79.8913 14.818C103.358 15.3338 134.43 21.511 150.55 55.8207C166.669 90.1304 147.198 133.958 144.75 137.838C142.302 141.718 139.85 145.316 133.145 145.316C126.44 145.316 120.509 140.417 108.905 124.686C96.0225 107.223 105.163 83.9294 90.7222 83.9294C67.6442 83.9294 72.0282 56.3364 50.7511 56.3364Z" fill="#002755"/>
<path d="M46.0037 261.722C55.9522 211.73 85.2694 186.088 97.5592 180.904C115.009 174.543 160.997 155.374 186.527 205.145C212.057 254.915 208.877 327.551 211.541 376.892H72.7881C72.7881 376.892 78.2035 356.003 78.0746 328.024C77.9456 300.044 83.8768 280.187 83.8768 280.187L61.972 271.935L49.3091 267.454C46.941 266.617 45.5134 264.186 46.0037 261.722Z" fill="#A4CDFF"/>
<path fill-rule="evenodd" clip-rule="evenodd" d="M201.228 376.891H211.541C211.056 367.91 210.764 358.156 210.458 347.91C209.082 301.864 207.409 245.855 186.526 205.144C171.818 176.47 150.319 170.679 131.399 172.137C147.457 173.471 164.127 181.583 176.213 205.144C197.096 245.855 198.769 301.864 200.145 347.91C200.451 358.156 200.742 367.91 201.228 376.891Z" fill="#80B9FF"/>
<path d="M71.825 375.525C71.6403 376.064 71.9273 376.65 72.4662 376.835C73.0051 377.02 73.5918 376.733 73.7765 376.194L71.825 375.525ZM79.7635 304.68C79.7607 304.11 79.2967 303.651 78.727 303.654C78.1573 303.656 77.6977 304.12 77.7005 304.69L79.7635 304.68ZM73.7765 376.194C75.8983 370.006 79.9699 347.202 79.7635 304.68L77.7005 304.69C77.9067 347.165 73.8293 369.679 71.825 375.525L73.7765 376.194Z" fill="#002755"/>
<path d="M97.7751 113.856C104.207 113.856 109.421 106.698 109.421 97.8674C109.421 89.0372 104.207 81.8789 97.7751 81.8789C94.1586 81.8789 90.9271 84.142 88.791 87.6929L90.9992 110.873C92.9081 112.75 95.2476 113.856 97.7751 113.856Z" fill="#FFC7C3"/>
<path fill-rule="evenodd" clip-rule="evenodd" d="M91.8008 84.1425C92.4031 84.0106 93.0208 83.942 93.6502 83.942C100.082 83.942 105.296 91.1003 105.296 99.9305C105.296 105.761 103.023 110.863 99.6269 113.656C105.18 112.439 109.424 105.834 109.424 97.8678C109.424 89.0377 104.209 81.8794 97.7775 81.8794C95.5925 81.8794 93.548 82.7055 91.8008 84.1425Z" fill="#FFA9A3"/>
<path d="M88.791 87.6929C90.9271 84.142 94.1586 81.8789 97.7751 81.8789C104.207 81.8789 109.421 89.0372 109.421 97.8674C109.421 106.698 104.207 113.856 97.7751 113.856C95.2476 113.856 92.9081 112.75 90.9992 110.873" stroke="#002755" stroke-width="2.06303" stroke-linecap="round" stroke-linejoin="round"/>
<path d="M98.3165 90.1313C95.9045 90.1313 93.9492 93.595 93.9492 97.8677C93.9492 102.14 95.9045 105.604 98.3165 105.604C99.6727 105.604 100.885 104.509 101.686 102.791L100.857 91.5748C100.142 90.6662 99.2643 90.1313 98.3165 90.1313Z" fill="#FFA9A3"/>
<path d="M101.686 102.791C100.885 104.509 99.6727 105.604 98.3165 105.604C95.9045 105.604 93.9492 102.14 93.9492 97.8677C93.9492 93.595 95.9045 90.1313 98.3165 90.1313C99.2643 90.1313 100.142 90.6662 100.857 91.5748" stroke="#002755" stroke-width="2.06303" stroke-linecap="round" stroke-linejoin="round"/>
<path d="M94.4624 98.1252C95.408 96.8358 98.8463 95.2885 101.167 98.1252" stroke="#002755" stroke-width="2.06303" stroke-linecap="round" stroke-linejoin="round"/>
<path d="M38.2468 362.966C65.4787 366.679 79.5073 308.983 83.1176 279.155C81.6563 278.296 74.8655 276.576 51.6565 268.582C51.6565 276.009 44.2639 294.714 40.3098 305.201C34.5505 296.175 22.1036 276.319 26.6423 269.098C31.1809 261.877 31.9718 235.316 31.7998 222.938C29.6509 222.336 17.888 202.823 7.30139 222.938C-5.59252 247.436 4.20685 358.324 38.2468 362.966Z" fill="#FFC7C4"/>
<path d="M17.603 255.431C20.6976 257.081 21.4712 261.964 21.4712 264.199C27.0414 257.597 24.8236 249.758 23.0185 246.663C22.1589 248.21 19.8724 252.13 17.603 255.431Z" fill="#FFA9A3"/>
<path d="M40.3101 305.201C34.5509 296.175 22.1039 276.318 26.6426 269.098C25.4342 270.817 23.2751 273.997 20.4385 275.029C21.9857 290.502 29.9799 309.069 35.6533 316.289C38.7477 310.874 38.7478 310.616 40.3101 305.201Z" fill="#FFA9A3"/>
<path d="M38.2451 362.966C65.4771 366.68 79.5056 308.984 83.1159 279.156C81.6546 278.296 77.6708 277.351 73.5596 276.062C68.1441 315.517 59.1184 348.01 38.2451 362.966Z" fill="#FFA9A3"/>
<path d="M92.1276 276.577L98.0588 245.374C94.1906 245.374 89.8067 255.689 88.5173 267.293C87.4857 276.577 77.4285 276.663 72.5288 275.545C73.3884 275.889 76.7064 277.041 83.1018 278.898C89.4972 280.754 91.7837 278.124 92.1276 276.577Z" fill="#80B9FF"/>
<path d="M98.075 244.6L92.3022 275.388C91.6925 278.64 88.1695 280.626 85.0369 279.562C77.8718 277.129 65.279 272.99 49.3313 267.443C46.9533 266.616 45.5146 264.179 46.0062 261.709C55.9572 211.726 85.2704 186.087 97.5593 180.904C115.009 174.543 160.997 155.374 186.527 205.145C212.057 254.915 211.026 310.359 211.026 375.602" stroke="#002755" stroke-width="2.06303" stroke-linecap="round"/>
<path d="M92.8585 177.559C92.4181 173.739 95.1578 170.286 98.9779 169.845L147.287 164.276C151.107 163.835 154.561 166.575 155.001 170.395C155.442 174.215 152.702 177.669 148.882 178.11L100.573 183.679C96.7527 184.119 93.2989 181.38 92.8585 177.559Z" fill="#A4CDFF"/>
<path fill-rule="evenodd" clip-rule="evenodd" d="M96.8794 183.094C97.9969 183.607 99.2644 183.83 100.575 183.679L148.884 178.11C152.704 177.669 155.444 174.216 155.004 170.395C154.563 166.575 151.109 163.836 147.289 164.276L142.216 164.861C144.355 165.843 145.945 167.886 146.234 170.395C146.675 174.216 143.935 177.669 140.115 178.11L96.8794 183.094Z" fill="#80B9FF"/>
<path d="M93.8832 177.441C93.508 174.187 95.8419 171.245 99.0961 170.87L147.405 165.301C150.659 164.925 153.601 167.259 153.977 170.513C154.352 173.768 152.018 176.71 148.764 177.085L100.455 182.654C97.2005 183.029 94.2583 180.695 93.8832 177.441Z" stroke="#002755" stroke-width="2.06303"/>
<path d="M83.1176 279.155C79.5073 308.983 65.4787 366.679 38.2468 362.966C4.20685 358.324 -5.59252 247.436 7.30139 222.938C17.888 202.823 29.6509 222.336 31.7998 222.938C31.9718 235.316 31.1809 261.877 26.6423 269.098C22.1036 276.319 34.5505 296.175 40.3098 305.201M51.3986 268.324C47.5304 284.829 39.0204 315.877 31.7998 322.479" stroke="#002755" stroke-width="2.06303" stroke-linecap="round" stroke-linejoin="round"/>
<rect x="2.15198" y="188.286" width="36.9979" height="59.8277" rx="4.12605" transform="rotate(-7.15602 2.15198 188.286)" fill="white" stroke="#002755" stroke-width="2.06303"/>
<path d="M31.2094 206.956C31.3736 208.236 31.1255 209.375 30.4649 210.371C29.8044 211.368 28.7948 212.124 27.4361 212.641L27.4469 212.725C29.1274 212.718 30.4444 213.062 31.398 213.757C32.3503 214.442 32.9134 215.462 33.0873 216.817C33.3403 218.789 32.8226 220.418 31.5342 221.704C30.2446 222.981 28.2728 223.79 25.6187 224.13C23.8115 224.362 22.1396 224.329 20.6031 224.031C19.9648 223.907 19.5074 223.364 19.4247 222.719C19.2704 221.517 20.4552 220.543 21.6552 220.715C21.715 220.724 21.775 220.732 21.8353 220.74C22.8209 220.87 23.781 220.875 24.7155 220.755C26.1454 220.572 27.1702 220.194 27.7901 219.62C28.4099 219.047 28.6509 218.222 28.513 217.148C28.3896 216.185 27.9095 215.553 27.073 215.252C26.2364 214.951 24.9583 214.911 23.2388 215.131C22.3794 215.242 21.5934 214.634 21.4831 213.775L21.4598 213.593C21.3475 212.718 21.9657 211.918 22.8406 211.805C24.4293 211.602 25.5617 211.247 26.2379 210.743C26.9222 210.227 27.1997 209.465 27.0702 208.456C26.8711 206.905 25.7997 206.254 23.8559 206.503C23.183 206.589 22.5105 206.79 21.8384 207.104C21.6141 207.21 21.3831 207.335 21.1455 207.481C20.2807 208.011 19.1388 207.952 18.4708 207.188C17.8109 206.434 17.8603 205.275 18.6993 204.727C20.1266 203.794 21.7984 203.205 23.7147 202.959C25.836 202.687 27.564 202.902 28.8986 203.605C30.2425 204.306 31.0127 205.423 31.2094 206.956Z" fill="#002755"/>
<path d="M17.3574 255.689C21.896 259.402 21.9992 263.941 21.4834 265.746L9.87891 251.821C13.7471 240.474 21.4834 235.316 24.578 237.895C27.6725 240.474 21.4834 249.5 17.3574 255.689Z" fill="#FFC7C3"/>
<path d="M21.4834 265.746C21.9992 263.941 21.896 259.402 17.3574 255.689C21.4834 249.5 27.6725 240.474 24.578 237.895C21.4834 235.316 13.7471 240.474 9.87891 251.821" stroke="#002755" stroke-width="2.06303" stroke-linecap="round" stroke-linejoin="round"/>
<rect x="50.3525" y="90.1313" width="4.12605" height="12.3782" rx="2.06303" fill="#002755"/>
<rect x="51.3818" y="91.1616" width="2.06303" height="4.12605" rx="1.03151" fill="white"/>
</svg>
