<!-- Generated by IcoMoon.io -->
<svg version="1.1" xmlns="http://www.w3.org/2000/svg" width="1024" height="1024" viewBox="0 0 1024 1024">
<title>signature</title>
<g id="icomoon-ignore">
</g>
<path d="M128 844.388c10.957 0 21.862-4.147 30.208-12.493l19.2-19.251c11.366 4.301 23.45 6.758 35.942 6.758 27.494 0 53.35-10.752 72.806-30.208l165.53-165.478-145.664-145.664-165.478 165.478c-19.456 19.456-30.208 45.312-30.208 72.858 0 12.493 2.509 24.576 6.758 35.942l-19.251 19.251c-16.691 16.691-16.691 43.622 0 60.314 8.346 8.346 19.251 12.493 30.208 12.493zM609.843 88.881l-256 256c-16.691 16.691-16.691 43.674 0 60.365l170.65 170.65c8.346 8.346 19.251 12.493 30.208 12.493 10.906 0 21.811-4.147 30.157-12.493l204.493-204.493 46.336 46.336-183.194 183.142c-16.64 16.691-16.64 43.674 0 60.365 8.346 8.294 19.251 12.493 30.208 12.493 10.906 0 21.811-4.198 30.157-12.493l213.299-213.35c16.691-16.691 16.691-43.622 0-60.314l-77.363-77.414c54.886-64.102 52.736-160.614-7.936-221.286-61.645-61.645-169.37-61.645-231.014 0zM721.357 767.998c28.928 0 49.664 27.494 41.318 54.733-2.202 7.27-4.608 14.336-7.066 21.094l-3.072 7.885 2.816 2.816c28.006 26.47 70.093 40.294 128.922 41.83l11.264 0.102c23.808 0 43.11 19.046 43.11 42.496 0 23.398-19.302 42.394-43.162 42.394-72.96 0-132.71-15.77-177.408-47.104l-9.37-6.963-0.512 0.563c-28.57 32.768-64.512 51.098-107.622 53.248l-8.704 0.256c-58.573 0-104.294-28.877-136.602-82.125l-6.144-10.65-49.766 51.507-19.558 20.838-5.786 6.298c-15.872 17.459-43.213 18.944-60.928 3.328-17.818-15.616-19.302-42.496-3.43-59.904l12.544-13.619 37.888-39.526 57.19-59.392 14.029-15.462c22.426-25.344 64.512-16.23 74.035 16.026 20.48 69.325 48.845 97.792 86.528 97.792 23.45 0 43.469-10.957 60.365-35.84l0.973-1.587-3.379-6.861c-2.867-6.144-5.478-12.442-7.834-19.046l-3.43-9.984c-8.192-25.702 9.728-51.814 36.147-54.784l5.069-0.307h41.574z"></path>
</svg>
