<svg width="208" height="339" viewBox="0 0 208 339" fill="none" xmlns="http://www.w3.org/2000/svg">
<path d="M31.9287 159.104C7.17241 225.534 1.67101 306.095 2.01484 338.072H66.2265C82.7393 338.072 102.241 338.588 131.47 338.588C122.186 259.161 124.163 222.972 126.312 215.064L125.539 152.657C121.928 150.165 113.779 144.044 106.971 140.537C98.4613 136.153 47.9172 131.511 31.9287 159.104Z" fill="#A4CDFF"/>
<path fill-rule="evenodd" clip-rule="evenodd" d="M115.989 338.541C120.836 338.571 125.981 338.589 131.47 338.589C122.186 259.163 124.163 222.974 126.312 215.065L125.539 152.659C124.841 152.177 123.974 151.56 122.98 150.853C118.83 147.899 112.464 143.368 106.971 140.539C103.05 138.519 90.2063 136.444 75.9302 137.493C83.3245 138.039 89.0899 139.299 91.4957 140.539C96.9885 143.368 103.354 147.899 107.505 150.853C108.499 151.56 109.365 152.177 110.063 152.659L110.837 215.065C108.688 222.972 106.711 259.148 115.989 338.541Z" fill="#80B9FF"/>
<path d="M2.01484 338.072C1.67101 306.095 7.17241 225.534 31.9287 159.104C47.9172 131.511 98.4613 136.153 106.971 140.537C113.779 144.044 121.928 150.165 125.539 152.657L126.312 215.064C124.163 222.972 122.186 258.645 131.47 338.072" stroke="black" stroke-width="2.06303" stroke-linecap="round" stroke-linejoin="round"/>
<path d="M171.442 31.9716C166.284 15.0548 143.333 7.5591 135.081 5.92587C60.2964 -6.71016 66.2276 62.917 68.2906 83.2893C69.941 99.5872 65.7118 119.908 60.0385 130.223C54.3652 140.538 80.4109 146.212 92.2733 145.18C104.136 144.149 104.394 141.828 106.714 130.223C109.035 118.619 115.9 116.04 136.614 116.04C150.196 116.04 153.846 108.909 159.98 96.924L160.095 96.699C168.863 102.4 171.442 95.1517 171.442 88.4469C171.442 81.7421 186.79 75.2811 172.731 70.1376C162.158 66.2694 177.889 53.1176 171.442 31.9716Z" fill="#FFC8A9" stroke="#002755" stroke-width="2.06303" stroke-linecap="round" stroke-linejoin="round"/>
<path d="M151.053 51.5701C152.677 49.9523 157.425 47.2019 163.431 49.1433" stroke="#002755" stroke-width="2.06303" stroke-linecap="round" stroke-linejoin="round"/>
<path d="M160.08 96.9572C154.304 93.6564 151.484 88.7051 150.797 86.6421C150.281 89.9945 152.086 94.6363 154.923 96.9572C157.192 98.8139 156.728 102.545 156.212 104.178C156.814 103.232 158.43 100.464 160.08 96.9572Z" fill="#FFAA7A"/>
<path d="M171.442 31.9716C166.284 15.0548 143.333 7.5591 135.081 5.92587C60.2964 -6.71016 66.2276 62.917 68.2906 83.2893C69.941 99.5872 65.7118 119.908 60.0385 130.223C54.3652 140.538 80.4109 146.212 92.2733 145.18C104.136 144.149 104.394 141.828 106.714 130.223C109.035 118.619 115.9 116.04 136.614 116.04C150.196 116.04 153.846 108.909 159.98 96.924L160.095 96.699C168.863 102.4 171.442 95.1517 171.442 88.4469C171.442 81.7421 186.79 75.2811 172.731 70.1376C162.158 66.2694 177.889 53.1176 171.442 31.9716Z" stroke="#002755" stroke-width="2.06303" stroke-linecap="round" stroke-linejoin="round"/>
<rect x="156.21" y="55.6958" width="4.12605" height="12.3782" rx="2.06303" fill="#002755"/>
<rect x="157.243" y="57.7598" width="2.06303" height="4.12605" rx="1.03151" fill="white"/>
<path d="M153.116 57.9402C155.094 56.4419 159.826 54.4881 162.936 58.6593" stroke="#002755" stroke-width="2.06303" stroke-linecap="round" stroke-linejoin="round"/>
<path d="M121.156 53.1167C141.786 53.1167 177.344 36.3546 170.138 21.3977C162.932 6.44074 147.445 -1.5535 118.304 0.251659C72.1442 3.11116 63.6342 43.8331 64.15 71.426C64.6658 99.019 41.5974 119.126 25.4831 156.01C2.27402 209.133 67.7751 209.133 89.4369 167.615C105.582 136.669 106.629 98.8471 114.451 76.3257C112.904 71.6839 100.526 53.1167 121.156 53.1167Z" fill="#002755"/>
<path fill-rule="evenodd" clip-rule="evenodd" d="M131.115 0.119811C127.171 -0.0731775 122.907 -0.032634 118.302 0.252637C72.1418 3.11214 63.6318 43.834 64.1476 71.427C64.4674 88.5376 55.7184 102.77 45.1823 119.909C38.7277 130.408 31.6024 141.999 25.4806 156.011C11.9686 186.939 28.5242 199.861 48.9917 197.067C33.9356 194.747 24.662 181.488 35.793 156.011C41.9148 141.999 49.0401 130.408 55.4947 119.908C66.0308 102.769 74.7798 88.5372 74.46 71.4266C73.9442 43.8336 82.4542 3.11172 128.614 0.252213C129.46 0.19986 130.293 0.155749 131.115 0.119811Z" fill="#001B3A"/>
<path d="M150.295 85.0942C152.101 90.7676 156.742 94.8936 161.384 97.4724" stroke="#002755" stroke-width="2.06303" stroke-linecap="round" stroke-linejoin="round"/>
<path d="M115.838 78.3892C110.37 78.3892 105.938 72.3854 105.938 64.9795C105.938 57.5735 110.37 51.5698 115.838 51.5698C118.912 51.5698 121.658 53.4679 123.474 56.4461L121.597 75.8871C119.975 77.4621 117.986 78.3892 115.838 78.3892Z" fill="#FFC8A9"/>
<path d="M123.474 56.4461C121.658 53.4679 118.912 51.5698 115.838 51.5698C110.37 51.5698 105.938 57.5735 105.938 64.9795C105.938 72.3854 110.37 78.3892 115.838 78.3892C117.986 78.3892 119.975 77.4621 121.597 75.8871" stroke="#002755" stroke-width="2.06303" stroke-linecap="round" stroke-linejoin="round"/>
<path d="M115.339 58.2754C117.269 58.2754 118.833 61.2772 118.833 64.9802C118.833 68.6832 117.269 71.6851 115.339 71.6851C114.254 71.6851 113.285 70.736 112.644 69.2469L113.306 59.5264C113.879 58.7389 114.581 58.2754 115.339 58.2754Z" fill="#FFAA7A"/>
<path d="M112.644 69.2469C113.285 70.736 114.254 71.6851 115.339 71.6851C117.269 71.6851 118.833 68.6832 118.833 64.9802C118.833 61.2772 117.269 58.2754 115.339 58.2754C114.581 58.2754 113.879 58.7389 113.306 59.5264" stroke="#002755" stroke-width="2.06303" stroke-linecap="round" stroke-linejoin="round"/>
<path d="M118.834 64.9798C118.034 64.1476 115.124 63.1491 113.161 64.9798" stroke="#002755" stroke-width="2.06303" stroke-linecap="round" stroke-linejoin="round"/>
<path d="M165.171 310.843C140.805 314.166 125.674 263.677 122.444 236.985C121.068 240.767 116.77 246.578 110.581 239.564C102.845 230.796 107.487 186.183 109.034 176.641C110.581 167.1 113.676 146.985 123.733 151.369C133.79 155.753 142.042 169.679 144.363 175.094C146.684 180.509 150.635 208.816 153.172 226.382C153.172 233.028 159.787 249.766 163.325 259.151C168.478 251.074 179.615 233.305 175.554 226.843C171.493 220.382 170.785 196.613 170.939 185.536C172.862 184.997 183.387 167.536 192.859 185.536C204.396 207.459 195.628 306.689 165.171 310.843Z" fill="#FFC8A9"/>
<path d="M183.805 214.807C180.71 216.045 179.937 220.652 179.937 222.801C175.398 215.374 177.358 209.735 178.905 207.844C179.249 208.274 180.71 210.268 183.805 214.807Z" fill="#FFAA7A"/>
<path d="M122.687 236.985C121.655 233.065 121.054 217.128 120.882 209.649C115.552 215.409 105.409 231.053 110.309 238.79C115.208 246.526 119.592 241.884 122.687 236.985Z" fill="#FFAA7A"/>
<path d="M167.558 311.254C140.326 314.968 122.172 262.515 120.882 209.65C122.343 208.791 128.118 217.645 131.713 231.828C135.308 246.011 146.685 296.297 167.558 311.254Z" fill="#FFAA7A"/>
<path d="M163.432 259.829C168.514 251.346 179.498 232.683 175.492 225.896C176.559 227.512 178.464 230.501 180.967 231.471C179.602 246.013 172.547 263.464 167.541 270.251C164.81 265.161 164.81 264.919 163.432 259.829Z" fill="#FFAA7A"/>
<path d="M120.896 208.875C120.896 259.15 140.805 314.165 165.171 310.842C195.628 306.688 204.396 207.458 192.859 185.535C183.387 167.535 172.862 184.997 170.939 185.535C170.785 196.612 171.493 220.381 175.554 226.842C179.615 233.304 168.478 251.073 163.325 259.15M170.939 274.611C164.478 268.704 156.864 240.919 153.403 226.15C151.765 216.608 149.521 196.755 147.458 185.535C145.395 174.315 139.979 158.073 104.65 139.248" stroke="#002755" stroke-width="2.06303" stroke-linecap="round" stroke-linejoin="round"/>
<rect x="-1.15198" y="0.894981" width="36.9979" height="59.8277" rx="4.12605" transform="matrix(-0.992211 -0.124572 -0.124572 0.992211 205.473 149.209)" fill="white" stroke="#002755" stroke-width="2.06303"/>
<path d="M191.56 171.531C191.405 172.812 190.884 173.855 189.999 174.659C189.114 175.463 187.949 175.948 186.506 176.114L186.495 176.199C188.126 176.605 189.318 177.262 190.072 178.17C190.827 179.068 191.122 180.195 190.957 181.551C190.718 183.525 189.816 184.977 188.251 185.907C186.687 186.828 184.577 187.127 181.921 186.805C180.112 186.586 178.499 186.143 177.083 185.476C176.495 185.199 176.185 184.561 176.263 183.915C176.409 182.712 177.797 182.059 178.918 182.521C178.974 182.544 179.03 182.567 179.086 182.589C180.01 182.958 180.939 183.198 181.875 183.312C183.306 183.485 184.392 183.37 185.134 182.967C185.876 182.563 186.312 181.823 186.442 180.748C186.559 179.784 186.249 179.054 185.512 178.556C184.775 178.059 183.546 177.706 181.825 177.497C180.965 177.393 180.352 176.611 180.456 175.751L180.479 175.569C180.585 174.693 181.381 174.069 182.256 174.175C183.846 174.368 185.031 174.303 185.811 173.98C186.6 173.649 187.057 172.978 187.179 171.968C187.367 170.415 186.489 169.521 184.543 169.285C183.87 169.203 183.169 169.232 182.44 169.372C182.197 169.419 181.942 169.484 181.676 169.567C180.707 169.869 179.615 169.53 179.155 168.626C178.701 167.733 179.033 166.621 179.981 166.296C181.594 165.743 183.359 165.582 185.277 165.815C187.4 166.072 189.023 166.706 190.144 167.715C191.274 168.725 191.746 169.997 191.56 171.531Z" fill="#002755"/>
<path d="M183.821 214.915C179.753 218.208 179.661 222.232 180.123 223.833L190.525 211.486C187.058 201.425 180.123 196.852 177.349 199.139C174.575 201.425 180.123 209.428 183.821 214.915Z" fill="#FFC8A9"/>
<path d="M180.123 223.833C179.661 222.232 179.753 218.208 183.821 214.915C180.123 209.428 174.575 201.425 177.349 199.139C180.123 196.852 187.058 201.425 190.525 211.486" stroke="#002755" stroke-width="2.06303" stroke-linecap="round" stroke-linejoin="round"/>
<path d="M122.959 236.985C121.326 240.595 113.934 249.105 109.034 234.922C104.134 220.738 105.63 140.177 125.023 152.143" stroke="#002755" stroke-width="2.06303"/>
</svg>
