<svg width="48" height="36" viewBox="0 0 48 36" fill="none" xmlns="http://www.w3.org/2000/svg"><path d="M23 6C23 5.44772 23.4477 5 24 5C24.5523 5 25 5.44772 25 6V12C25 12.5523 24.5523 13 24 13C23.4477 13 23 12.5523 23 12V6Z" fill="#002755"/><circle cx="24" cy="4" r="3.69753" fill="#002755" stroke="#002755" stroke-width="0.604938"/><path d="M5 18C5 14.134 8.13401 11 12 11H36C39.866 11 43 14.134 43 18V28C43 31.866 39.866 35 36 35H12C8.13401 35 5 31.866 5 28V18Z" fill="#A4CDFF" stroke="#002755" stroke-width="2"/><path fill-rule="evenodd" clip-rule="evenodd" d="M34 34H36C39.3137 34 42 31.3137 42 28V18C42 14.6863 39.3137 12 36 12H34C37.3137 12 40 14.6863 40 18V28C40 31.3137 37.3137 34 34 34Z" fill="#80B9FF"/><path d="M4.30247 18C4.30247 13.7488 7.74877 10.3025 12 10.3025H36C40.2512 10.3025 43.6975 13.7488 43.6975 18V28C43.6975 32.2512 40.2512 35.6975 36 35.6975H12C7.74877 35.6975 4.30247 32.2512 4.30247 28V18Z" stroke="#002755" stroke-width="0.604938"/><rect width="14" height="14" rx="7" transform="matrix(1 0 0 -1 10 27)" fill="#80B9FF"/><rect x="1" y="-1" width="12" height="12" rx="6" transform="matrix(1 0 0 -1 9 24)" fill="white" stroke="#002755" stroke-width="2"/><rect width="14" height="14" rx="7" transform="matrix(1 0 0 -1 26 27)" fill="#80B9FF"/><rect x="1" y="-1" width="12" height="12" rx="6" transform="matrix(1 0 0 -1 25 24)" fill="white" stroke="#002755" stroke-width="2"/><path d="M47.6975 26C47.6975 26.9375 46.9375 27.6975 46 27.6975L44.3025 27.6975L44.3025 18.3025L46 18.3025C46.9375 18.3025 47.6975 19.0625 47.6975 20L47.6975 26Z" fill="#002755" stroke="#002755" stroke-width="0.604938"/><path d="M3.69753 27.6975L2 27.6975C1.06248 27.6975 0.302469 26.9375 0.302469 26L0.30247 20C0.30247 19.0625 1.06248 18.3025 2 18.3025L3.69753 18.3025L3.69753 27.6975Z" fill="#002755" stroke="#002755" stroke-width="0.604938"/><path d="M21 28C21.4561 29.1685 22.6273 30 24 30C25.3727 30 26.5439 29.1685 27 28H21Z" fill="#002755" stroke="#002755" stroke-width="2" stroke-linecap="round" stroke-linejoin="round"/><path d="M31 17C31 16.4477 31.4477 16 32 16C32.5523 16 33 16.4477 33 17V21C33 21.5523 32.5523 22 32 22C31.4477 22 31 21.5523 31 21V17Z" fill="#002755"/><path d="M15 17C15 16.4477 15.4477 16 16 16C16.5523 16 17 16.4477 17 17V21C17 21.5523 16.5523 22 16 22C15.4477 22 15 21.5523 15 21V17Z" fill="#002755"/></svg>