<svg width="206" height="257" viewBox="0 0 206 257" fill="none" xmlns="http://www.w3.org/2000/svg">
<path d="M131.28 167.007C135.749 163.474 142.236 164.233 145.769 168.703C153.82 178.888 176.723 181.053 178.673 240H158.054C156.291 186.718 135.802 189.361 129.584 181.496C126.051 177.027 126.81 170.54 131.28 167.007Z" fill="#A4CDFF"/>
<path d="M178.673 238.5C176.723 179.553 153.82 178.888 145.769 168.703C142.236 164.233 135.749 163.474 131.28 167.007C126.81 170.54 126.051 177.027 129.584 181.496C135.802 189.361 156.291 185.718 158.054 239" stroke="#002755" stroke-width="2.06303" stroke-linecap="round" stroke-linejoin="round"/>
<path d="M94.7176 170.034C99.6519 171.427 102.522 176.557 101.129 181.491C97.7599 193.424 89.9612 211.232 79.2492 226.235C73.875 233.763 67.5228 240.932 60.3064 246.293C53.0828 251.659 44.5086 255.558 34.946 255.558C26.07 255.558 18.3916 252.901 12.5139 247.697C6.72726 242.575 3.45217 235.667 1.99284 228.452C-0.875816 214.268 2.85398 197.261 10.8197 182.752C13.2872 178.258 18.9309 176.615 23.4253 179.082C27.9197 181.55 29.5628 187.194 27.0953 191.688C20.6192 203.484 18.4185 216.004 20.1916 224.771C21.0536 229.033 22.7435 231.956 24.821 233.795C26.8072 235.553 29.8946 236.991 34.946 236.991C39.3078 236.991 44.0787 235.218 49.2345 231.388C54.3962 227.553 59.4551 222.006 64.1381 215.447C73.5406 202.277 80.4409 186.432 83.2606 176.446C84.6538 171.511 89.7833 168.641 94.7176 170.034Z" fill="#A4CDFF" stroke="#002755" stroke-width="2.06303" stroke-linecap="round" stroke-linejoin="round"/>
<path fill-rule="evenodd" clip-rule="evenodd" d="M22.8498 229.489C22.1634 228.136 21.5971 226.508 21.2045 224.567C19.4922 216.1 21.6083 203.829 28.0013 192.185C30.743 187.191 28.9173 180.92 23.9236 178.178C23.686 178.048 23.4455 177.928 23.2026 177.818C24.4882 180.671 24.4649 184.073 22.8428 187.027C16.4498 198.672 14.3337 210.943 16.0459 219.409C16.8745 223.506 18.4757 226.208 20.348 227.865C21.0147 228.455 21.8319 229.017 22.8498 229.489ZM8.03223 244.447C9.1601 245.875 10.4234 247.223 11.832 248.47C17.9262 253.865 25.8599 256.59 34.9479 256.59C44.7997 256.59 53.5853 252.572 60.9233 247.121C68.2539 241.676 74.678 234.416 80.0906 226.835C90.8753 211.73 98.7239 193.812 102.124 181.771C103.531 176.788 101.024 171.626 96.439 169.564C97.4059 171.702 97.6526 174.179 96.9653 176.614C93.5654 188.655 85.7168 206.572 74.932 221.678C69.5194 229.259 63.0953 236.518 55.7648 241.963C48.4268 247.414 39.6412 251.432 29.7893 251.432C21.3624 251.432 13.9279 249.089 8.03223 244.447Z" fill="#80B9FF"/>
<path d="M94.7176 170.034C99.6519 171.427 102.522 176.557 101.129 181.491C97.7599 193.424 89.9612 211.232 79.2492 226.235C73.875 233.763 67.5228 240.932 60.3064 246.293C53.0828 251.659 44.5086 255.558 34.946 255.558C26.07 255.558 18.3916 252.901 12.5139 247.697C6.72726 242.575 3.45217 235.667 1.99284 228.452C-0.875816 214.268 2.85398 197.261 10.8197 182.752C13.2872 178.258 18.9309 176.615 23.4253 179.082C27.9197 181.55 29.5628 187.194 27.0953 191.688C20.6192 203.484 18.4185 216.004 20.1916 224.771C21.0536 229.033 22.7435 231.956 24.821 233.795C26.8072 235.553 29.8946 236.991 34.946 236.991C39.3078 236.991 44.0787 235.218 49.2345 231.388C54.3962 227.553 59.4551 222.006 64.1381 215.447C73.5406 202.277 80.4409 186.432 83.2606 176.446C84.6538 171.511 89.7833 168.641 94.7176 170.034Z" stroke="#002755" stroke-width="2.06303" stroke-linecap="round" stroke-linejoin="round"/>
<path d="M106.636 126.361C106.636 117.816 113.564 110.888 122.109 110.888C130.655 110.888 137.582 117.816 137.582 126.361V155.244H106.636V126.361Z" fill="#A4CDFF" stroke="#002755" stroke-width="2.06303"/>
<path fill-rule="evenodd" clip-rule="evenodd" d="M122.107 109.857C112.992 109.857 105.603 117.246 105.603 126.361V136.844C107.514 136.07 109.603 135.644 111.791 135.644C120.906 135.644 128.296 143.034 128.296 152.149V156.275H138.611V126.361C138.611 117.246 131.222 109.857 122.107 109.857Z" fill="#80B9FF"/>
<path d="M106.636 126.361C106.636 117.816 113.564 110.888 122.109 110.888C130.655 110.888 137.582 117.816 137.582 126.361V155.244H106.636V126.361Z" stroke="#002755" stroke-width="2.06303"/>
<path d="M78.5132 192.894C78.5132 168.967 97.9098 149.57 121.837 149.57V149.57C145.764 149.57 165.16 168.967 165.16 192.894V240L121.837 240.343L78.5132 240V192.894Z" fill="#A4CDFF"/>
<path fill-rule="evenodd" clip-rule="evenodd" d="M155 240H165V193C165 169.252 145.748 150 122 150C120.228 150 118.481 150.107 116.765 150.315C138.307 152.914 155 171.258 155 193.5V240Z" fill="#80B9FF"/>
<path d="M165.16 238.5V193.894C165.16 169.967 145.764 150.57 121.837 150.57V150.57C97.9098 150.57 78.5132 169.967 78.5132 193.894V238.5" stroke="#002755" stroke-width="2.06303" stroke-linecap="round"/>
<path d="M94.5015 191.346C94.5015 189.068 96.3488 187.22 98.6275 187.22H106.88C109.158 187.22 111.006 189.068 111.006 191.346V195.472C111.006 197.751 109.158 199.598 106.88 199.598H98.6275C96.3488 199.598 94.5015 197.751 94.5015 195.472V191.346Z" fill="#80B9FF"/>
<path d="M94.5015 208.366C94.5015 206.087 96.3488 204.24 98.6275 204.24H106.88C109.158 204.24 111.006 206.087 111.006 208.366V212.492C111.006 214.771 109.158 216.618 106.88 216.618H98.6275C96.3488 216.618 94.5015 214.771 94.5015 212.492V208.366Z" fill="#80B9FF"/>
<path d="M115.134 208.366C115.134 206.087 116.981 204.24 119.26 204.24H127.512C129.791 204.24 131.638 206.087 131.638 208.366V212.492C131.638 214.771 129.791 216.618 127.512 216.618H119.26C116.981 216.618 115.134 214.771 115.134 212.492V208.366Z" fill="#80B9FF"/>
<path d="M135.762 208.366C135.762 206.087 137.609 204.24 139.888 204.24H148.14C150.419 204.24 152.266 206.087 152.266 208.366V212.492C152.266 214.771 150.419 216.618 148.14 216.618H139.888C137.609 216.618 135.762 214.771 135.762 212.492V208.366Z" fill="#80B9FF"/>
<path d="M115.134 191.346C115.134 189.068 116.981 187.22 119.26 187.22H127.512C129.791 187.22 131.638 189.068 131.638 191.346V195.472C131.638 197.751 129.791 199.598 127.512 199.598H119.26C116.981 199.598 115.134 197.751 115.134 195.472V191.346Z" fill="#80B9FF"/>
<path d="M135.762 191.346C135.762 189.068 137.609 187.22 139.888 187.22H148.14C150.419 187.22 152.266 189.068 152.266 191.346V195.472C152.266 197.751 150.419 199.598 148.14 199.598H139.888C137.609 199.598 135.762 197.751 135.762 195.472V191.346Z" fill="#80B9FF"/>
<path d="M93.9851 189.799C93.9851 188.09 95.3706 186.705 97.0797 186.705H105.332C107.041 186.705 108.426 188.09 108.426 189.799V193.925C108.426 195.635 107.041 197.02 105.332 197.02H97.0797C95.3706 197.02 93.9851 195.635 93.9851 193.925V189.799Z" fill="#002755" stroke="#002755" stroke-width="2.06303"/>
<path d="M93.9851 206.303C93.9851 204.594 95.3706 203.209 97.0797 203.209H105.332C107.041 203.209 108.426 204.594 108.426 206.303V210.429C108.426 212.138 107.041 213.524 105.332 213.524H97.0797C95.3706 213.524 93.9851 212.138 93.9851 210.429V206.303Z" fill="#0068E4" stroke="#002755" stroke-width="2.06303"/>
<path d="M114.617 189.799C114.617 188.09 116.002 186.705 117.712 186.705H125.964C127.673 186.705 129.058 188.09 129.058 189.799V193.925C129.058 195.635 127.673 197.02 125.964 197.02H117.712C116.002 197.02 114.617 195.635 114.617 193.925V189.799Z" fill="#0068E4" stroke="#002755" stroke-width="2.06303"/>
<path d="M114.617 206.303C114.617 204.594 116.002 203.209 117.712 203.209H125.964C127.673 203.209 129.058 204.594 129.058 206.303V210.429C129.058 212.138 127.673 213.524 125.964 213.524H117.712C116.002 213.524 114.617 212.138 114.617 210.429V206.303Z" fill="#002755" stroke="#002755" stroke-width="2.06303"/>
<path d="M135.245 189.799C135.245 188.09 136.631 186.705 138.34 186.705H146.592C148.301 186.705 149.687 188.09 149.687 189.799V193.925C149.687 195.635 148.301 197.02 146.592 197.02H138.34C136.631 197.02 135.245 195.635 135.245 193.925V189.799Z" fill="#002755" stroke="#002755" stroke-width="2.06303"/>
<path d="M135.245 206.303C135.245 204.594 136.631 203.209 138.34 203.209H146.592C148.301 203.209 149.687 204.594 149.687 206.303V210.429C149.687 212.138 148.301 213.524 146.592 213.524H138.34C136.631 213.524 135.245 212.138 135.245 210.429V206.303Z" fill="#0068E4" stroke="#002755" stroke-width="2.06303"/>
<path d="M18.9583 187.22C14.8788 194.651 12.1575 202.596 10.9805 210.171" stroke="#002755" stroke-width="20.6303" stroke-linecap="round" stroke-linejoin="round"/>
<path d="M46.2924 168.653C46.2924 171.133 45.7617 173.49 44.8076 175.615C42.1465 181.544 36.1916 185.673 29.2724 185.673C19.8725 185.673 12.2524 178.053 12.2524 168.653C12.2524 161.584 16.5617 155.522 22.6965 152.95C24.7196 152.101 26.9413 151.633 29.2724 151.633" stroke="#002755" stroke-width="12.3782" stroke-linecap="round"/>
<rect x="0.643686" y="-1.30909" width="36.9979" height="59.8277" rx="4.12605" transform="matrix(0.946557 -0.322536 -0.322536 -0.946557 26.1078 173.926)" fill="white" stroke="#002755" stroke-width="2.06303"/>
<path d="M31.876 130.334C33.7488 129.696 35.4019 129.61 36.8352 130.077C38.2744 130.533 39.2402 131.483 39.7326 132.927C40.073 133.926 40.1005 134.912 39.8151 135.885C39.5266 136.85 38.8718 137.849 37.8508 138.884C39.5809 139.171 40.9084 139.634 41.8334 140.274C42.7643 140.903 43.403 141.725 43.7495 142.742C44.2966 144.347 44.1086 145.855 43.1854 147.264C42.2593 148.665 40.7706 149.715 38.7194 150.414C36.579 151.143 34.7429 151.261 33.2111 150.768C31.6792 150.275 30.6291 149.194 30.0608 147.527C29.6808 146.412 29.6377 145.322 29.9315 144.256C30.2342 143.187 30.9286 142.099 32.0146 140.993C30.6597 140.668 29.6003 140.188 28.8362 139.553C28.0721 138.917 27.5275 138.122 27.2023 137.168C26.7251 135.768 26.9187 134.438 27.7833 133.177C28.6478 131.917 30.0121 130.97 31.876 130.334ZM33.8046 145.982C34.066 146.749 34.5372 147.255 35.2182 147.501C35.8992 147.747 36.7034 147.711 37.6309 147.395C38.6565 147.046 39.349 146.566 39.7084 145.956C40.0648 145.336 40.1199 144.666 39.8737 143.943C39.67 143.346 39.2259 142.875 38.5413 142.531C37.8625 142.175 36.8565 141.896 35.5233 141.693C33.9216 143.215 33.3487 144.644 33.8046 145.982ZM32.8796 133.367C32.1751 133.607 31.6666 133.984 31.3542 134.499C31.0477 135.001 30.9978 135.556 31.2045 136.162C31.3869 136.697 31.7205 137.121 32.2052 137.434C32.6959 137.734 33.4676 137.954 34.5203 138.093C35.2545 137.385 35.7225 136.758 35.9245 136.211C36.1264 135.664 36.1316 135.11 35.9401 134.548C35.7304 133.933 35.3418 133.523 34.7743 133.318C34.2068 133.113 33.5752 133.13 32.8796 133.367Z" fill="#002755"/>
<path d="M46.2944 168.652C46.2944 171.133 45.7637 173.49 44.8096 175.615C42.1485 181.543 36.1936 185.672 29.2744 185.672" stroke="#002755" stroke-width="12.3782" stroke-linecap="round"/>
<path d="M53.7586 75.817C53.7586 58.1567 68.0751 43.8401 85.7355 43.8401H157.941C175.602 43.8401 189.918 58.1567 189.918 75.817V100.058C189.918 117.718 175.602 132.034 157.941 132.034H85.7355C68.0751 132.034 53.7586 117.718 53.7586 100.058V75.817Z" fill="#A4CDFF" stroke="#002755" stroke-width="2.06303"/>
<path fill-rule="evenodd" clip-rule="evenodd" d="M147.625 133.065H157.941C176.171 133.065 190.949 118.287 190.949 100.057V75.816C190.949 57.586 176.171 42.8076 157.941 42.8076H147.625C165.856 42.8076 180.634 57.586 180.634 75.816V100.057C180.634 118.287 165.856 133.065 147.625 133.065Z" fill="#80B9FF"/>
<path d="M53.7586 75.817C53.7586 58.1567 68.0751 43.8401 85.7355 43.8401H157.941C175.602 43.8401 189.918 58.1567 189.918 75.817V100.058C189.918 117.718 175.602 132.034 157.941 132.034H85.7355C68.0751 132.034 53.7586 117.718 53.7586 100.058V75.817Z" stroke="#002755" stroke-width="2.06303"/>
<rect width="41.2605" height="41.2605" rx="20.6303" transform="matrix(1 0 0 -1 78.5137 102.635)" fill="#80B9FF"/>
<rect x="1.03151" y="-1.03151" width="39.1975" height="39.1975" rx="19.5987" transform="matrix(1 0 0 -1 76.4512 98.5097)" fill="white" stroke="#002755" stroke-width="2.06303"/>
<rect width="41.2605" height="41.2605" rx="20.6303" transform="matrix(1 0 0 -1 128.027 102.635)" fill="#80B9FF"/>
<rect x="1.03151" y="-1.03151" width="39.1975" height="39.1975" rx="19.5987" transform="matrix(1 0 0 -1 125.964 98.5097)" fill="white" stroke="#002755" stroke-width="2.06303"/>
<path d="M39.3162 82.005C39.3162 78.0172 42.5489 74.7844 46.5368 74.7844H53.7574V101.604H46.5368C42.5489 101.604 39.3162 98.371 39.3162 94.3832V82.005Z" fill="#002755" stroke="#002755" stroke-width="2.06303"/>
<path d="M204.357 93.8685C204.357 97.8563 201.124 101.089 197.137 101.089L189.916 101.089L189.916 74.2698L197.137 74.2698C201.124 74.2698 204.357 77.5025 204.357 81.4903L204.357 93.8685Z" fill="#002755" stroke="#002755" stroke-width="2.06303"/>
<path d="M109.974 108.825C111.786 113.647 116.44 117.077 121.895 117.077C127.35 117.077 132.004 113.647 133.816 108.825" stroke="#002755" stroke-width="2.06303" stroke-linecap="round" stroke-linejoin="round"/>
<path d="M144.53 86.1319C144.53 84.9925 145.453 84.0688 146.593 84.0688C147.732 84.0688 148.656 84.9925 148.656 86.1319V99.5415H144.53V86.1319Z" fill="#002755"/>
<path d="M121.08 20.6301C121.08 20.0605 121.541 19.5986 122.111 19.5986C122.681 19.5986 123.143 20.0605 123.143 20.6301V44.3549H121.08V20.6301Z" fill="#002755"/>
<path d="M95.0166 86.1319C95.0166 84.9925 95.9402 84.0688 97.0796 84.0688C98.219 84.0688 99.1427 84.9925 99.1427 86.1319V99.5415H95.0166V86.1319Z" fill="#002755"/>
<circle cx="122.109" cy="10.3151" r="9.28362" fill="#002755" stroke="#002755" stroke-width="2.06303"/>
</svg>
