<!-- Generated by IcoMoon.io -->
<svg version="1.1" xmlns="http://www.w3.org/2000/svg" width="1067" height="1024" viewBox="0 0 1067 1024">
<title></title>
<g id="icomoon-ignore">
</g>
<path d="M925.18 0.001c24.064 0 43.52 19.098 43.52 42.649v938.702c0 23.552-19.456 42.649-43.52 42.649h-783.36c-24.064 0-43.52-19.098-43.52-42.649v-938.702c0-23.552 19.456-42.649 43.52-42.649zM510.972 307.201l-7.936 0.102c-60.57 2.56-108.902 53.146-108.902 115.098v46.080l0.359 9.011c2.56 32.563 18.739 61.081 42.496 80.435h-0.512l-103.526 62.924-5.888 4.096c-15.001 11.674-23.962 29.798-23.962 49.254v70.758l0.359 4.096c1.945 10.752 11.264 18.944 22.374 18.944l368.231-0.359c10.598-1.945 18.637-11.366 18.637-22.681v-70.758l-0.409-7.219c-2.202-19.046-12.954-36.148-29.44-46.132l-103.475-62.874h-0.614l6.298-5.53c22.374-20.992 36.608-50.688 36.608-83.968v-41.165l-0.256-8.141c-3.738-56.78-45.875-105.984-102.349-111.412l-8.089-0.563zM662.115 256.052c-19.354-0.716-37.273 4.608-51.815 13.926 36.864 28.16 60.416 70.502 60.416 117.658v43.93l-0.461 11.111c-1.741 22.016-8.755 43.264-20.327 62.362l62.156 33.997 8.396 5.12c8.141 5.478 15.36 11.929 21.504 19.046h49.050l4.301-0.359c11.264-1.843 19.763-10.752 19.763-21.606v-64.512l-0.409-5.53c-1.843-12.851-9.984-24.371-22.374-31.129l-68.3-37.376 4.71-5.837c8.857-12.083 14.183-26.471 14.183-42.086v-18.023l-0.307-6.912c-3.584-38.963-37.171-72.192-80.486-73.728z"></path>
</svg>
